/* XPM */
static char * brick2_xpm[] = {
"128 128 5 1",
" 	c #1F1F1F",
".	c #080707",
"+	c #252323",
"@	c #151414",
"#	c #2F2A2A",
".@@........@.@............@@@@@...........@@@..@.......@@..@........@@@@@@............@@.@.......@@.@..........@@...@...........",
". +###+...++###++++    ...+#####+++++# ... +#####++@.. +#++####++@..  +#+######+## ... #######@.. +#####+#++@..+###+###+++#  @..",
".  +###@..  +++#####+## .. +++#+#++++## ..  +#+#+## ..  ++ +++### ..  ++ +###++#+##@.@+ +++###+.. ++##+++###+.. +##+++#+######@.",
".   + # ..     ++   ++# ..     +     +# ..    ++++# ..+        +# ..+    +   +   +#@..    +++#+..        + #+..        + ++++#@.",
".     # ..  +       ++# ..         +  # ..       +# ..+   +  +  # ..+   +   ++   +#@..+    ++#+..+   ++++  # ..  +          ## .",
".     # ..         +++#+..            # ..        #+..+        +#+..   +   ++    +#@..      +#+..     ++   ++..             ## .",
".     #+..      ++   +##..           +# ..+    +  #+..+  +    ++##..+      ++     # ..       #+..+         #+..              # .",
".    +#+..    + +     #+..           +#+..+  ++   #+..+  +     +##..+  +       +  # .@       ##..+       ++##..         +    #+.",
".     ++..+   ++      ++..+  +     +++#+..+  ++   #+..+         ##..#         ++  # ..    ++ ##..+   ++    ++..+             # .",
".     #+..+           #+..+         +++ ..+       ++..+         +#..#            +#+.@       ++..+    ++   +#..+            +# .",
".+    ++..#           ++..+           ++..#       ++..#         ++..#+            + .@+      ++..#         ++..#             # .",
".++++++ ..###+##++++++  ..+##+++++++ +  ..++++++++  ..+#+++++++++ ..+########++++++ .@#+       ..+#####++ ++ ..+#+           + .",
"............................................@...........@.@.@.@......@.......@.@.@..............................................",
"......................................................................................@@@@@@@..........@@@..........@@@@@@@.....",
"@   @  @ @ @@ @@ @....@++   @..@+++     @@...@ ++ +++++   @@...@   @    @@ @@@@@@....++##########++@..@ ########+@..@+#######@..",
" +#######+#+#######@.. +#+##+.. ++######## ..  +#####+##++##@.. +####+##+########+..@+ +#+#++###+###..@ ++ ##+####..@ +##++##@..",
"      ++     ++++##@..@ +  ##..        ++#+..   +       + +# ..           +++#+###@.@+   +     ++ ##@.@+     +  +#@.@  ++ +## ..",
"     +      +     #@..@   +++..          #+..+             #+..   +        ++   +#@.@+          ++##..@       + +#@.@      ##@..",
"    ++    +       # ..@  ++#+..          #+..              #+..    +            +#@.@+ ++++       +#@.@        ++#@.@  +   +#@..",
"         +++   + +#@..     ##..          ##..     +        + ..+                +#@.@+   + +      +#@.@+   +    +# .   +++  # ..",
"          ++   ++ # ..     +#@.          +#..+             #+..           +     +#@.@+    +   +   +# .@    +     #@.        # ..",
"     +++++++     +# ..   + +#@.+         ##..+       +   + ++..            ++   +# .@+    ++  +  ++# .@+        +# .        # ..",
"         +        # ..@    ##@.+         ##@.++  +   +  ++ ++..+   +  +  +  +   +#+.@#             #@.@+         # .        + ..",
"+#                + ..      #@.+         +#..++             +..++                + .@#             +@. #         + .+       + ..",
"@###+++++++++++   + .. +   ++@.+#++++++    @.+#+++++++++ +   .. ####++#+++++ +++   ..########+++++++ .@##+++#+++++ .@++++   + ..",
"....@..@...............@@@@@@..@  @ @   @@@...        @ @ @@@...@@@.@@@@@@@@..@.@.....@@..@.@.@.@.@.......@.....................",
".......................................................@....@...................................................................",
".@@@.@.@.@@.@.@........ ++  +++ +   @@..@  +  +   @@..@+++++###+++ @..@  ++++    @@@..@  ++++  ++  @... +++++++@... +++++++  @..",
".@+############++## ... ++++####+#####..@++#########.. ++#######+###..@ ++##########@.@+###########+..@ ++######@.@  +###+####@.",
".   +++++#+++##++###@.@+   ++++   ++##..   +#+    ##@.@   +++     +#@.@       +++++#@.@ ++        ##@.@       ##@.@  +  +  ++#@.",
".@                ##@.@+    +  + +  +#@.    +     +#@.@    ++     +#@.@            #@.@           +#..@+      ##@.@+ +      +#@.",
".        +         #@.@+    +  +  + +#@.@       + +#@.        + +++#@.            +#@.@  ++       +#@.@   +    #@.@          #@.",
".   +     +  +    +#@.@+   ++       +#@.       ++++#@.      ++    +#@.@     +    ++#@.@+ +  + +   +#@.@+    +  #@.@+    +    #@.",
".   ++  ++    +   +#@.@+     +      +#@.          +#@.             #@.      +    ++#@.@    ++     +#@.@+      +#@.@+   ++  ++# .",
".    +   +        +#@.@+  +          #@.       +  +# .     +   ++  #@. +       +  +# .@    ++     +#@.@+      +# .@+   ++  ++# .",
".            +    +# .@#  +++       +#@.       +  ## .@         +  #@.         +  +# .@+   +  +    #@.@+      +# .@+   ++   +# .",
".++                # .@#             +@. +         # .            +#@. +           + .@+           +@.@+       + .@+         + .",
".+#++++++ ++         .@##+++++++ ++  + . #++++++     . +++        ++@. ##+++#+++++++ .@#++ +++ +  ++@.@#+++    + .@#++ ++++ ++ .",
"..@  @ @ @@@@@@@@@@@...@       @@@ @@@@..   @   @ @ @.@@ @@@@@@@@@@@...@ @@  @@ @@@@@..@@ @@@@@@@@@@...@@@@@@@@@...@@@@@@@@@@@..",
"..........@@@@.............@@@@@@..........................................@@..@@.....@@@@......@@.@............................",
"@+#+++@.. +###+##+#+ ++@.. +#####+#++@.. +##++++++++    @   @ @@@@ @@@@...  ######+@.. ++#+#@..@+#+####+@..@+#++++++    + @ @@..",
"@++++##.. +####++++#####..  +++++++##+.. +##+##+###++################## .. ++#######..@ +####.. ++++####+.. +##########+######..",
"@    +#@.  ++++     ++##@.     +  ++##..@  +        + +  +++#+ ##+ ####+..     +#+##..@  ++##..   ++   ##..   ++     +    +++#@.",
"@    +#@.  ++ +       +#@.      +  +##..      +       +      + ++    +#+..        ##..@   +++..        +#..@ +   ++         +#@.",
"@    +#@.  ++  +     ++#@.      +   #+..        +              ++     #+..        +#@.@    +#..@       ++..     ++          +#@.",
"@    ##@.            +##@.     ++   ##..           +    +       ++   +##..        #+..     ++..        +#@.     +            #@.",
"@+   +#@.             +#@.          ##..+          ++            ++   ##..  +     +#@.      +@.   +    +#@.  ++             +#@.",
"@    +#@.        ++   +# .          ##..+        +++    ++        +  ++#..        +#@.     +#@.   ++   +#@.+       +         # .",
"@   ++#@@+  +    ++   +# .          +#..+                          +  ##..+        #@.@    +#@.        +#@.+                 # .",
"      + @#             + .++         +@.+                             +#@.++        @.      +@.++       +@.+#                + .",
"@#++    @####+++++++++++ .+#++++++++++@. ####+++++++++++++++   ++     ++.. #++++++ +@. #++++ @. #++   +++@.@##++++#+++++      @.",
"..@.@@....@@@@@@@@@@@@@@...@@@@@@@@@@@...@@@@@@@@@@@@@@@@@@@@@@@@@@@@@@@@..@@@@@@@@@...@@@@@....@@@@@@@@@.......................",
"..........................................................................@.........@@.@....@..........@...............@........",
"@  @@ @ @@@@@@@.@.....@ @@@@...       @@@@...@  +        @@@..@@       @@@@@@@@@@...@ +########+++ @..@++#+++++# @.. +######+...",
" +######### ###+##+... +#### .. +######### .@+ +############@.@ +################+..@+ +####+##+####.. ++#+##++###.. +##+####@..",
"  ++#+#+++   ++++##@..  ++ #+..+  #++ ++## ..+   + + + +  ## .@+    ++ +#++++##+##.. +     +      ##.. + ++++   +#@.   ++  ##@..",
"   +   +         +#@..     #+..   ++     #+..+         +  +# .@+     ++     ++  +#@.@+   +        +#..          +#@.    ++ +#@..",
"               + +#@..     #+..+   +     ++..+ +     +++  +# .@+      +         +#@.@         ++  +#@.          ##@.     + +#@..",
"+                +#@..     ##..+     ++ +##.@+       ++    + .@+                 #@. +        +++ ##@.     +   ++#@.        #@..",
"+                ## ..     #+.@+    ++++ +#..+             #+.@+         +      +#@. +  ++     ++++#@. +    +   ##@.       +#@..",
"+                +# ..     ++..+     ++  +#.@+           + #+.@+                +#@. +   ++   ++ +++@.   +      +#@.       +#@..",
"+                 # ..     ##..+      ++++#@.#            +#+.@+                +#@. +    +    +  +#@.   +       #@.       +#@..",
"#+                + ..+    ++.@+        +++@.#+            # .@#+                +@. #             +@.++         +@.        + ..",
"+###+++#++++++++  + ..++    +..#+    +    +@.##++++++   +  + .@#######+##++++++ ++@.@####+++#+++++++@. #+++++++++ @. #+++    @..",
".@@.@@@@@@@@@@@@@.@...@   @@@..@+         @..@+++   ++      @@@@@@@@ @@@@@@ @@@@@@@..@@@@@@@@@@@@@@@...@@@@@@@@@@...............",
"...........................@@.@...........@@.@.@......@@@@.@.....@.@.@@.@.@.@.........@@.@......................................",
". ++++@...++++ + @ @@@@... +++++++++  @... ++#++ + ..@  ++#++++ @..@ ++#+#++##  + @..@+#+#+ ++@..   ++++   @... ++#++      @@@..",
".++####@..++#+####+####@..  +#+########@.@ ++######@.@+++##++#### .@++++###########@.@ +######@.@+ +##+#####@..+ +############..",
".   ++#@..      #+ ++## ..     ++  +++#@.@      +## .@  + +  ++ + .@+   +++   ++ +#@.@      ## .@   ++  + +# ..    + +#+ ++ +#@.",
".    +#@..           +#+..     ++    +#@.@   +  ++#@.@+      +  # .@+  ++       ++#@.@      +# .@+  ++++   # ..    +        +# .",
".  +  #@..     +      #+..+ ++        # .@     +++# .@+      + +#+.@+  +++  ++++ +#@.@      +# .@+    ++  +# ..+             #@.",
"@  + +# ..      +     # ..  +++      +# .@      ++# .@+        ##+.@+   ++++  ++  #@.@  +   +#+.@+        +#+..      ++++   +#@.",
".     #+.@+  +        #+.@           ##+.@+      +# .@+    +    # .@#   ++       +# .@      +#+.@+      + +#+..+     +       # .",
"@    ## .@+           ##.@+      +   +#+.@+      +# .@#       + #+.@+      +     +# .@       ++.@+      +  ++.@+            +#@.",
"@+   +# .@+        + +#+.@+      +    #+.@+       # .@#      +++++.@#   +         # .@       ++.@#         + .@+             # .",
"@+    + .@+           + .@+           #+.@#       + .@#          +.@#             + .@       ++.@#         ++.@+             + .",
".#++  + ..####++++++ +  ..##++++++   ++ .@#++++++++ .@##+++#++ ++ @@####+++#++   ++ .@#        ..###+++++    .@#+ +   +      + .",
".@@@@@@...@@@@@@@@@@@@@@..@@ @@@@@@@@@@@..@@ @@@  @@..@       @ @@..@        @@@@ @@..@@@@@@@@@..@@@@ @@@@@@...@@@@@@@@.@.@..@..",
"..............................@.@.........@..@.....@.@.........@@.@..................@................................@.@.@.....",
".  +#++++## +  @..@++  +++ ... +++++++@..@  ++# ..@ ++++#  @..@ ++  +++        @@..@#+++++++++        @@@@@@@@@@@@@.. ++###++ ..",
".  +#+######+###@.@+++++### .@+#+#+####@.@  +###@.@++#+++###@.@++##+#############@. #+++############+#############+..  ++#++##@.",
".+   +  ++    ##@.@  + +  # .@       +#@.@   +##@.@  + + +##@.       ++ ++  +  +# .@    ++      ++   ++ ++ +#+++##+..   ++  +#@.",
".+            +#@.@      +# .@   + + +#@.@    +#@.@       ##@.   +    +         #@.@               +         +   +#..+  ++  +#@.",
".             +#@.@      +# .@       +#@.@     #@.@+      +#@.         ++      +# .@         + ++  +          ++ +#..    +  +#@.",
".+   +      +  #@.@       #+.@       +#@.@    +#@.@+       #@. +  +    +       +#+.@           ++      +         +#@.       +# .",
".+   +      +  # .@       ++.@       +#@.@    ##@.@    +  +#@.    ++ +         +#+.@          +  ++   +         +##..  ++    # .",
".+          +++# .@   ++  ++.@+ ++   +# .@    +#@.@     + +#@.        ++       +++.@      +      +    +          ##@.  +     #+.",
".#   +   +    +#+.@       #+.@+ ++    # .@     # .@+      +#@. +        +       #+.                      +      +##..   +   +# .",
".#             # . +      ++.@+       + .@+    + .@+      +# . #                #+. +                            ##.@+       + .",
".####++++++ ++ + .@#+++     .@#       + .@+     @.@+++     + .@##+ +#++           .@#+#+                        ++#@.+       + .",
".@@@@@@@@@@@@@@@...@@@@@@@@@..@@@@@@@@@@..@@@@@@...@@   @ @ ...@@@.@@@@@@@@..........@@ @@@@@@@@......@@@@@@@@....@..@@@@@@@....",
".@@@@@@@..............  + ++ +     @@..@ ++++ @@@@@..@  +++++#+   @..@  ++    @@@@...@  ++++ + @ @....  ++++++@... ++++     @...",
" ###+#########++++@..@ +#####+######+..@ +##++#####..@  +++#+######..@ ++##########@.@ +###########..@+++######..@++++#######@..",
" +++++#####+##++###@.@+  ++   +++  ##..@  ++  +  ##@.@         ++##@.@   +   +#+###@.@ ++   +++++##@.@+   ++ +#@.@+  ++    ##@..",
"     ++ +++ ++  +##@.@+            ##@.          +#@.@          ++#@.@     +   +  #@.@+  +       +#@.@+    + +#@.@+  +     +#@..",
"   +++   +       +#@.@+            +#@.          +#@.            ##@.@ +   ++     #@.@+   +      +#@.@       +#@.@+ +      +#@..",
"   ++      +      #@.@+            +#@.   +     ++#@.   ++       +#@.@            +@.@+  +       +#@.@       +#@.@+     ++++#@..",
"+                +#@.@+            +#@.        ++++@.            +#@.@        +   #@.@+       +  +#@.@ ++     #@.@+       ++# ..",
"+      ++      ++## .@+          +++#@. +        ++@.         ++ +#@.         ++  # .@+          ##@.@  +     # .@+     ++  # ..",
"+      ++  +     ## .@#      +   +++#@.          +#@.     + ++ +++#@.          +  # .@+          +#@.@+    +++#@.@+  +  ++  + ..",
"#+                # .@#             +@. +         + .             +@. +           + .@+           +@.@+      +# .@+         + ..",
"##+ +++           + .@#++++++       + . #+ ++ +     . +           +@. #+++   +  + + .@#++  ++     +@.@+       + .@#+         @..",
"@     @ @ @ @@@@@@@@..@ ++     @@@  @@..       @ @@@.. @@@@@@@@@@@@@..  + @ @@@@@@@@..@ @@@ @@@@@@@@..@@@@@@@@@...@ @@@@@@@@@...",
".@@@@@@@@...@@   @@@@.....  @  @@@...@@@@@....@@.@.................@    @     @ @....@     @@@...@   @@@@@@....@@@@      @@@@...",
"@ +#+####+..  #######++@.@ ++##+##@.. ####+@.. +#++++#++       @...  ########+####@..+########@.@  #########@.. +++#+##+##### ..",
"@  #++++##@.  +++++++## .@  +++ +#+..  ++##@.. +###+++###++##### ..   +# ++++ +++#+..  + +#+##@.@+  +#+##++# .@+    ++++++++++@.",
"@       ##@.          #+.@       ##..     #@..+       +      ++#+..  +      +   +#+..     +++#@.@+       + # .@+     +  +   ++@.",
"@   +   +#@.    +    +# .@       ##..     # ..     +  ++     + ++..             +# ..    +  +#@.@+     +   +@..+  +         +#@.",
"@       +#@.   +     +#+.@   ++  #+..     # .@+     ++++       #+..   ++        +#+.@       +#@.@+      +  # .@+  +   +    ++#@.",
"@      ++#@.     +   +#+.@   +   +#..  +  # .@+    ++ +++      #+..+    +      + ##..      ++#@.@+       ++# .@+   +  +     +#@.",
"@+      +# .          #+.@   +   ##..     # .@+     +  + ++    +#..+    +       +##.@+      +# .@+       ++# .@+ + ++    ++ +#@.",
"@+      +# .        + #+.@       ##..    +#+.@#      ++  ++  ++##..+             ++.@      ++# .@+        +#+.@+   ++       +# .",
"@+       # @+         #+.        ++@.  + +# .@+          +    +++..+             #+.@+      +# .@+         ++.@#            +# .",
"@+       + @#+        ++@ +       +@.     ++.@#++               +@.+#+            +@@#       + .@#         + .@#+            + .",
".+        @.++          .@+        ..       ..+##+               ..@##     +       ..         @..     +     @..+#+    ++      @.",
".@@ @@    @.@@@@@@@.@.@...@........@..@@@.@.................@@  @@.@ @@@@....@@@@@@......@@@@@@..@@....@@@@@@...@@......@@@@@...",
"@ ++++++#####+++++++++ +++++   @..@++#++++++++++     @@@@..@ +######++###+@..  +#####+@.@ +######## ..@ +#####+++++  @.. +###+..",
"@ +#++++#++####+#+####+#########.. ++####################@.@  +++## +###+#+..   ######..@ ++####++##@.@ +#+##+++#####+.. +####..",
"@      +         +       +  +++#..    +++#+   + ++    ++# .@   +  +      +#..@      +#@.@         ##@.@  +  +    +  #+..  ++##@.",
"@        +       ++ +   +   + ++..       + +            + .@   +         ##.. +  ++ +#@.@         +#@.@   + +  +    ++..  +++#@.",
"@     +   +       +++ +++   + +#@.       +             +# .@             ##..    ++ ##@.@       +++#@.@   +   +++    +@.    +#@.",
"@   +        +        ++     +++@.              +      ##+.@    +        +#..       +#@.@        ++#@.@             +#@.    +#@.",
"    +                   +     +#@.                     +#+.@             +#@.@   ++ +#@.@  +     ++#@.@   ++        +#@@   + #@.",
"        +           +   ++    +#@.+   +         +      +#+.@             +#@.    ++ +# .@        ++#@.@ +           ##@.    ## .",
" +       +       +   +    +   +#@.+              +      ++. +             +@.       ## .@+   +    +#@.@             +#@@    +#@.",
" #                             #@.#+                      . #            + @.        + .@+         + .              +#@@+    #@.",
"@++++++++++++     +      @ @ @  .. ###++++#++++++++++++ + .@##+#++++++++++ @. +++++   @.@###+#++++++@.@#++++ ++      +@.#+++++@.",
"................................................................@.@.@..@.......................@.........@......................"};